<svg xmlns="http://www.w3.org/2000/svg" preserveAspectRatio="xMidYMid meet" data-bbox="39.5 30 121 140" viewBox="39.5 30 121 140" data-type="color" role="presentation" aria-hidden="true" aria-labelledby="svgcid--30pz4ujvj7yo"><defs><style>#comp-l4fn2w0w3__item-ker6vlu0 svg [data-color="1"] {fill: #B5516F;}</style></defs><title id="svgcid--30pz4ujvj7yo"/>
    <g>
        <path opacity=".15" fill="#B5516F" d="M100 30L39.5 65.1v40.6L100 70.8l60.5 34.9v29.2-69.8L100 30z" data-color="1"/>
        <path fill="#B5516F" opacity=".25" d="M100 70.8l-60.5 34.9v11.9l60.5-35 60.5 35v17.3-29.2L100 70.8z" data-color="1"/>
        <path fill="#B5516F" opacity=".4" d="M100 82.6l-60.5 35v11.9l60.5-35 60.5 35v5.4-17.3l-60.5-35z" data-color="1"/>
        <path fill="#B5516F" opacity=".6" d="M100 94.5l-60.5 35v5.4l5.6 3.2 54.9-31.7 54.9 31.7 5.6-3.2v-5.4l-60.5-35z" data-color="1"/>
        <path opacity=".8" fill="#B5516F" d="M45.1 138.1l12.1 7.1 42.8-24.8 42.8 24.8 12.1-7.1-54.9-31.7-54.9 31.7z" data-color="1"/>
        <path fill="#B5516F" d="M57.2 145.2L100 170l42.8-24.8-42.8-24.8-42.8 24.8z" data-color="1"/>
    </g>
</svg>