<svg xmlns="http://www.w3.org/2000/svg" preserveAspectRatio="xMidYMid meet" data-bbox="30 30 140 140" viewBox="30 30 140 140" data-type="color" role="presentation" aria-hidden="true" aria-labelledby="svgcid-6zfato-qv6dr7"><defs><style>#comp-l4fn2w0w3__item1 svg [data-color="1"] {fill: #B5516F;}</style></defs><title id="svgcid-6zfato-qv6dr7"/>
    <g>
        <path fill="#B5516F" opacity=".2" d="M170 100c0 38.66-31.34 70-70 70s-70-31.34-70-70 31.34-70 70-70 70 31.34 70 70z" data-color="1"/>
        <path fill="#B5516F" opacity=".3" d="M160.1 100c0 33.192-26.908 60.1-60.1 60.1S39.9 133.192 39.9 100 66.808 39.9 100 39.9s60.1 26.908 60.1 60.1z" data-color="1"/>
        <path fill="#B5516F" opacity=".5" d="M150 100c0 27.614-22.386 50-50 50s-50-22.386-50-50 22.386-50 50-50 50 22.386 50 50z" data-color="1"/>
        <path opacity=".6" fill="#B5516F" d="M140 100c0 22.091-17.909 40-40 40s-40-17.909-40-40 17.909-40 40-40 40 17.909 40 40z" data-color="1"/>
        <path fill="#B5516F" d="M124.942 93.013c3.86 13.773-4.177 28.068-17.95 31.928-13.773 3.86-28.069-4.176-31.929-17.95-3.86-13.773 4.177-28.068 17.95-31.928 13.773-3.86 28.068 4.176 31.929 17.95z" data-color="1"/>
    </g>
</svg>